<svg width="14" height="14" fill="none" xmlns="http://www.w3.org/2000/svg"><path d="M11.959 1.458H2.042l.875 9.917L7 12.54l4.084-1.166.875-9.917Z" fill="#fff"/><path d="M7 2.333v9.304l3.267-.933.729-8.37H7Z" fill="#fff"/><path d="M9.654 3.792H7v1.166h1.43l-.088 1.167H7v1.167h1.283l-.087 1.312L7 9.012v1.225l2.304-.758.204-3.354.146-2.333Z" fill="#000"/><path d="M7 3.792v1.166H4.406l-.088-1.167h2.684ZM5.66 6.125l.057 1.167h1.284V6.125H5.659Zm.116 1.75H4.609l.088 1.604L7 10.237V9.012l-1.196-.408-.03-.73Z" fill="#000"/></svg>