<svg width="14" height="14" fill="none" xmlns="http://www.w3.org/2000/svg"><path d="M2.002 2h8.726c.979 0 1.772.793 1.772 1.772v6.956c0 .979-.793 1.772-1.772 1.772H3.772A1.772 1.772 0 0 1 2 10.728V2h.002Z" fill="#fff"/><path d="M6.9 10.444c-.012.396-.06.618-.19.815-.19.298-.5.44-.944.44-.444 0-.754-.137-.944-.408-.14-.206-.2-.504-.2-1.004V9.126c0-.553.068-.856.249-1.069.19-.226.476-.342.872-.342s.791.169.972.5c.092.168.13.363.14.689h-.733c-.037-.428-.113-.541-.351-.541s-.347.168-.347.823v1.041c0 .657.076.824.363.824s.368-.174.38-.609H6.9v.002ZM7.788 10.444c.012.44.113.608.38.608.265 0 .39-.14.39-.509 0-.367-.032-.261-.097-.33-.08-.081-.088-.081-.476-.211-.618-.194-.863-.516-.863-1.122 0-.606.351-1.161 1.036-1.161s.759.162.94.5c.087.168.12.363.129.689h-.733c-.033-.428-.098-.542-.31-.542-.213 0-.299.158-.299.484 0 .326.114.396.493.52.384.13.493.179.634.294.21.17.31.44.31.851 0 .799-.38 1.187-1.145 1.187-.766 0-.815-.173-.993-.532-.088-.169-.12-.368-.13-.722h.734v-.004ZM10.223 10.444c.012.44.114.608.38.608s.39-.14.39-.509c0-.367-.032-.261-.096-.33-.081-.081-.088-.081-.477-.211-.617-.194-.863-.516-.863-1.122 0-.606.352-1.161 1.037-1.161.684 0 .758.162.939.5.088.168.12.363.13.689h-.734c-.032-.428-.097-.542-.31-.542s-.298.158-.298.484c0 .326.113.396.492.52.384.13.493.179.634.294.21.17.31.44.31.851 0 .799-.38 1.187-1.145 1.187-.766 0-.814-.173-.992-.532-.088-.169-.12-.368-.13-.722h.733v-.004Z" fill="#000"/></svg>