<svg width="21" height="21" fill="none" xmlns="http://www.w3.org/2000/svg"><path d="M17.937 2.188H3.062l1.313 14.874 6.124 1.75 6.126-1.75 1.312-14.874Z" fill="#fff"/><path d="M10.5 3.5v13.956l4.9-1.4L16.494 3.5H10.5Z" fill="#fff"/><path d="M10.5 10.938v-1.75h3.762l-.306 5.03-3.456 1.138V13.52l1.794-.613.131-1.969H10.5Zm3.894-3.5.131-1.75H10.5v1.75h3.894ZM10.5 13.519v1.837L7.044 14.22l-.175-2.406h1.75l.087 1.093 1.794.613ZM8.356 7.438H10.5v-1.75H6.519l.306 5.25H10.5v-1.75H8.487l-.131-1.75Z" fill="#000"/></svg>