<svg width="14" height="14" fill="none" xmlns="http://www.w3.org/2000/svg"><path d="M1.75 12.25V1.75h10.5v10.5H1.75Z" fill="#fff"/><path d="M8.615 9.61c.202.327.421.642.886.642.39 0 .595-.194.595-.463 0-.32-.212-.435-.641-.622l-.236-.1c-.68-.288-1.13-.65-1.13-1.412 0-.703.537-1.238 1.378-1.238.599 0 1.03.207 1.34.75l-.734.47c-.161-.289-.336-.402-.606-.402-.276 0-.45.174-.45.401 0 .281.174.395.578.57l.236.1c.8.34 1.252.689 1.252 1.472 0 .843-.666 1.305-1.56 1.305-.875 0-1.372-.438-1.648-.982l.74-.491Zm-3.38.024c.148.264.372.467.695.467.309 0 .486-.122.486-.596V6.417h.972v3.238c0 .982-.57 1.428-1.401 1.428-.752 0-1.294-.509-1.515-.982l.764-.467Z" fill="#000"/></svg>